<svg xmlns="http://www.w3.org/2000/svg" viewBox="0 0 1200 800">
  <defs><linearGradient id="b" x1="0" y1="0" x2="1" y2="1"><stop stop-color="#EFF6FF"/><stop offset="1" stop-color="#E8FFF6"/></linearGradient><linearGradient id="s" x1="0" y1="0" x2="1" y2="1"><stop stop-color="#1D4ED8"/><stop offset="1" stop-color="#0F766E"/></linearGradient></defs>
  <rect width="1200" height="800" fill="url(#b)"/><circle cx="170" cy="150" r="120" fill="#BFDBFE" opacity=".65"/><circle cx="1080" cy="700" r="190" fill="#A7F3D0" opacity=".55"/>
  <rect x="112" y="140" width="630" height="510" rx="45" fill="#fff" stroke="#BFDBFE" stroke-width="4"/><rect x="112" y="140" width="630" height="82" rx="45" fill="url(#s)"/><circle cx="165" cy="181" r="12" fill="#fff" opacity=".65"/><circle cx="203" cy="181" r="12" fill="#fff" opacity=".4"/>
  <rect x="170" y="278" width="510" height="88" rx="22" fill="#FEF2F2"/><circle cx="213" cy="322" r="17" fill="#DC2626"/><rect x="250" y="300" width="210" height="16" rx="8" fill="#991B1B" opacity=".75"/><rect x="250" y="332" width="350" height="11" rx="6" fill="#CBD5E1"/>
  <rect x="170" y="392" width="510" height="88" rx="22" fill="#FFFBEB"/><circle cx="213" cy="436" r="17" fill="#F59E0B"/><rect x="250" y="414" width="180" height="16" rx="8" fill="#92400E" opacity=".75"/><rect x="250" y="446" width="310" height="11" rx="6" fill="#CBD5E1"/>
  <rect x="170" y="506" width="510" height="88" rx="22" fill="#ECFDF5"/><circle cx="213" cy="550" r="17" fill="#059669"/><rect x="250" y="528" width="235" height="16" rx="8" fill="#065F46" opacity=".75"/><rect x="250" y="560" width="280" height="11" rx="6" fill="#CBD5E1"/>
  <circle cx="927" cy="295" r="92" fill="#A56B46"/><path d="M805 700V500c0-113 55-170 122-170s122 57 122 170v200" fill="#fff"/><path d="M864 402l63 90 63-90" fill="#DBEAFE"/><path d="M927 490v114" stroke="#2563EB" stroke-width="14"/><path d="M876 605h102" stroke="#2563EB" stroke-width="14" stroke-linecap="round"/><path d="M849 246q76-108 156 0q-14-110-79-110t-77 110" fill="#1E293B"/>
  <circle cx="895" cy="300" r="7" fill="#111827"/><circle cx="959" cy="300" r="7" fill="#111827"/><path d="M903 340q24 16 48 0" fill="none" stroke="#fff" stroke-width="6" stroke-linecap="round"/>
  <text x="790" y="92" font-family="Arial,sans-serif" font-size="30" font-weight="700" text-anchor="middle" fill="#0F172A">Anonymised clinical referrals</text>
</svg>
