<svg xmlns="http://www.w3.org/2000/svg" viewBox="0 0 1200 800">
  <defs>
    <linearGradient id="bg" x1="0" y1="0" x2="1" y2="1"><stop stop-color="#E9F5FF"/><stop offset="1" stop-color="#DDF8EA"/></linearGradient>
    <linearGradient id="coat" x1="0" y1="0" x2="1" y2="1"><stop stop-color="#2563EB"/><stop offset="1" stop-color="#059669"/></linearGradient>
    <pattern id="p" width="44" height="44" patternUnits="userSpaceOnUse"><circle cx="5" cy="5" r="2" fill="#2563EB" opacity=".12"/></pattern>
  </defs>
  <rect width="1200" height="800" fill="url(#bg)"/><rect width="1200" height="800" fill="url(#p)"/>
  <circle cx="920" cy="170" r="150" fill="#FDE68A" opacity=".6"/><path d="M0 650 Q260 520 510 650T1000 620T1200 650V800H0Z" fill="#A7F3D0"/>
  <rect x="700" y="260" width="310" height="310" rx="40" fill="#fff" opacity=".94"/><rect x="742" y="315" width="226" height="28" rx="14" fill="#DBEAFE"/><rect x="742" y="368" width="170" height="22" rx="11" fill="#D1FAE5"/><rect x="742" y="415" width="210" height="22" rx="11" fill="#E2E8F0"/><circle cx="855" cy="506" r="34" fill="#059669"/><path d="M855 486v40M835 506h40" stroke="#fff" stroke-width="9" stroke-linecap="round"/>
  <circle cx="360" cy="280" r="82" fill="#8B5E3C"/><path d="M260 690V455c0-82 45-124 100-124s100 42 100 124v235" fill="url(#coat)"/><path d="M286 233q74-104 150 0q-18-92-75-92t-75 92" fill="#172554"/>
  <circle cx="555" cy="340" r="65" fill="#C6865A"/><path d="M485 690V480c0-65 31-99 70-99s70 34 70 99v210" fill="#F59E0B"/><circle cx="300" cy="292" r="7" fill="#111827"/><circle cx="400" cy="292" r="7" fill="#111827"/><path d="M330 327q30 22 60 0" fill="none" stroke="#fff" stroke-width="7" stroke-linecap="round"/>
  <path d="M426 435q100 30 144 10" fill="none" stroke="#8B5E3C" stroke-width="24" stroke-linecap="round"/>
  <text x="70" y="92" font-family="Arial,sans-serif" font-size="34" font-weight="700" fill="#0F172A">Care that starts in the community</text><text x="70" y="137" font-family="Arial,sans-serif" font-size="22" fill="#475569">Trusted guidance · local mediators · connected services</text>
</svg>
