<svg xmlns="http://www.w3.org/2000/svg" viewBox="0 0 1200 800">
  <defs><linearGradient id="a" x1="0" y1="0" x2="1" y2="1"><stop stop-color="#FFF7ED"/><stop offset=".5" stop-color="#EFF6FF"/><stop offset="1" stop-color="#ECFDF5"/></linearGradient><linearGradient id="c" x1="0" y1="0" x2="1" y2="1"><stop stop-color="#2563EB"/><stop offset="1" stop-color="#7C3AED"/></linearGradient></defs>
  <rect width="1200" height="800" fill="url(#a)"/><path d="M0 670Q280 590 560 680T1200 630V800H0Z" fill="#DBEAFE"/>
  <rect x="430" y="120" width="650" height="470" rx="42" fill="#fff" stroke="#E2E8F0" stroke-width="4"/><rect x="485" y="175" width="540" height="70" rx="22" fill="url(#c)"/><path d="M540 210h250" stroke="#fff" stroke-width="17" stroke-linecap="round" opacity=".9"/><circle cx="950" cy="210" r="19" fill="#34D399"/>
  <rect x="485" y="290" width="235" height="235" rx="30" fill="#EFF6FF"/><path d="M545 430q58-120 116 0" fill="#60A5FA"/><circle cx="603" cy="365" r="42" fill="#A56B46"/><path d="M567 345q36-70 75 0q-10-65-39-65t-36 65" fill="#172554"/>
  <rect x="760" y="290" width="265" height="52" rx="18" fill="#ECFDF5"/><rect x="760" y="365" width="215" height="20" rx="10" fill="#CBD5E1"/><rect x="760" y="410" width="245" height="20" rx="10" fill="#CBD5E1"/><rect x="760" y="455" width="180" height="20" rx="10" fill="#CBD5E1"/>
  <circle cx="250" cy="330" r="85" fill="#8B5E3C"/><path d="M130 730V500c0-98 54-148 120-148s120 50 120 148v230" fill="#059669"/><path d="M173 282q78-112 158 0q-15-106-80-106t-78 106" fill="#111827"/><rect x="250" y="450" width="220" height="155" rx="24" fill="#1D4ED8" transform="rotate(-8 250 450)"/><circle cx="220" cy="337" r="7" fill="#111827"/><circle cx="280" cy="337" r="7" fill="#111827"/>
  <text x="78" y="100" font-family="Arial,sans-serif" font-size="34" font-weight="700" fill="#0F172A">Health literacy, built together</text><text x="78" y="146" font-family="Arial,sans-serif" font-size="22" fill="#475569">Clear lessons for students, families and mediators</text>
</svg>
