<svg xmlns="http://www.w3.org/2000/svg" viewBox="0 0 1200 800">
  <defs><linearGradient id="g" x1="0" y1="0" x2="1" y2="1"><stop stop-color="#0F2A5F"/><stop offset=".55" stop-color="#1D4ED8"/><stop offset="1" stop-color="#047857"/></linearGradient><filter id="sh"><feDropShadow dx="0" dy="16" stdDeviation="16" flood-opacity=".18"/></filter></defs>
  <rect width="1200" height="800" fill="url(#g)"/><circle cx="1100" cy="80" r="260" fill="#60A5FA" opacity=".12"/><circle cx="100" cy="760" r="300" fill="#34D399" opacity=".12"/>
  <path d="M240 420L470 235L720 390L970 210M470 235L520 610M720 390L880 610" fill="none" stroke="#fff" stroke-width="5" opacity=".28" stroke-dasharray="12 15"/>
  <g filter="url(#sh)"><circle cx="240" cy="420" r="92" fill="#fff"/><circle cx="470" cy="235" r="92" fill="#fff"/><circle cx="720" cy="390" r="92" fill="#fff"/><circle cx="970" cy="210" r="92" fill="#fff"/><circle cx="520" cy="610" r="92" fill="#fff"/><circle cx="880" cy="610" r="92" fill="#fff"/></g>
  <g fill="none" stroke="#2563EB" stroke-width="18" stroke-linecap="round"><path d="M240 377v86M197 420h86"/><path d="M470 202v66M437 235h66"/></g>
  <path d="M675 415h90v-52h-90zM694 363v-24h52v24" fill="none" stroke="#059669" stroke-width="12" stroke-linejoin="round"/><circle cx="970" cy="185" r="28" fill="#7C3AED"/><path d="M920 260q50-78 100 0" fill="#7C3AED"/>
  <rect x="474" y="560" width="92" height="96" rx="18" fill="#EFF6FF" stroke="#2563EB" stroke-width="10"/><path d="M497 590h46M497 616h34" stroke="#2563EB" stroke-width="9" stroke-linecap="round"/>
  <path d="M838 627q42-73 84 0M880 548v60M850 578h60" fill="none" stroke="#059669" stroke-width="13" stroke-linecap="round"/>
  <text x="70" y="92" font-family="Arial,sans-serif" font-size="38" font-weight="700" fill="#fff">One connected public-health network</text><text x="70" y="142" font-family="Arial,sans-serif" font-size="23" fill="#DBEAFE">Community · mediator · mobile outreach · clinician · ministry</text>
</svg>
